HIERARCHY
ROOT hip
{
  OFFSET 0 0 0
  CHANNELS 6 Xposition Yposition Zposition Zrotation Yrotation Xrotation
  JOINT abdomen
  {
    OFFSET 0 20.6881 -0.73152
    CHANNELS 3 Zrotation Xrotation Yrotation
    JOINT chest
    {
      OFFSET 0 11.7043 -0.48768
      CHANNELS 3 Zrotation Xrotation Yrotation
      JOINT neck
      {
        OFFSET 0 22.1894 -2.19456
        CHANNELS 3 Zrotation Xrotation Yrotation
        JOINT head
        {
          OFFSET -0.24384 7.07133 1.2192
          CHANNELS 3 Zrotation Xrotation Yrotation
          JOINT leftEye
          {
            OFFSET 4.14528 8.04674 8.04672
            CHANNELS 3 Zrotation Xrotation Yrotation
            End Site
            {
              OFFSET 1 0 0
            }
          }
          JOINT rightEye
          {
            OFFSET -3.6576 8.04674 8.04672
            CHANNELS 3 Zrotation Xrotation Yrotation
            End Site
            {
              OFFSET 1 0 0
            }
          }
        }
      }
      JOINT rCollar
      {
        OFFSET -2.68224 19.2634 -4.8768
        CHANNELS 3 Zrotation Xrotation Yrotation
        JOINT rShldr
        {
          OFFSET -8.77824 -1.95073 1.46304
          CHANNELS 3 Zrotation Xrotation Yrotation
          JOINT rForeArm
          {
            OFFSET -28.1742 -1.7115 0.48768
            CHANNELS 3 Zrotation Xrotation Yrotation
            JOINT rHand
            {
              OFFSET -22.5879 0.773209 7.07136
              CHANNELS 3 Zrotation Xrotation Yrotation
              JOINT rThumb1
              {
                OFFSET -1.2192 -0.487915 3.41376
                CHANNELS 3 Zrotation Xrotation Yrotation
                JOINT rThumb2
                {
                  OFFSET -3.37035 -0.52449 3.41376
                  CHANNELS 3 Zrotation Xrotation Yrotation
                  End Site
                  {
                    OFFSET -1.78271 -1.18214 1.43049
                  }
                }
              }
              JOINT rIndex1
              {
                OFFSET -7.75947 0.938293 5.60832
                CHANNELS 3 Zrotation Xrotation Yrotation
                JOINT rIndex2
                {
                  OFFSET -2.54057 -0.884171 1.56538
                  CHANNELS 3 Zrotation Xrotation Yrotation
                  End Site
                  {
                    OFFSET -1.62519 -0.234802 1.16502
                  }
                }
              }
              JOINT rMid1
              {
                OFFSET -8.24714 1.18213 3.41376
                CHANNELS 3 Zrotation Xrotation Yrotation
                JOINT rMid2
                {
                  OFFSET -3.10165 -0.590103 1.0647
                  CHANNELS 3 Zrotation Xrotation Yrotation
                  End Site
                  {
                    OFFSET -2.48547 -0.328903 0.83742
                  }
                }
              }
              JOINT rRing1
              {
                OFFSET -8.82822 0.546677 1.51678
                CHANNELS 3 Zrotation Xrotation Yrotation
                JOINT rRing2
                {
                  OFFSET -2.60934 -0.819778 -0.0198488
                  CHANNELS 3 Zrotation Xrotation Yrotation
                  End Site
                  {
                    OFFSET -2.33842 -0.294052 0.168128
                  }
                }
              }
              JOINT rPinky1
              {
                OFFSET -8.27202 -0.0477905 -0.4584
                CHANNELS 3 Zrotation Xrotation Yrotation
                JOINT rPinky2
                {
                  OFFSET -1.82734 -0.647385 -0.700984
                  CHANNELS 3 Zrotation Xrotation Yrotation
                  End Site
                  {
                    OFFSET -1.69225 -0.51767 -0.607171
                  }
                }
              }
            }
          }
        }
      }
      JOINT lCollar
      {
        OFFSET 2.68224 19.2634 -4.8768
        CHANNELS 3 Zrotation Xrotation Yrotation
        JOINT lShldr
        {
          OFFSET 8.77824 -1.95073 1.46304
          CHANNELS 3 Zrotation Xrotation Yrotation
          JOINT lForeArm
          {
            OFFSET 28.1742 -1.7115 0.48768
            CHANNELS 3 Zrotation Xrotation Yrotation
            JOINT lHand
            {
              OFFSET 22.5879 0.773209 7.07136
              CHANNELS 3 Zrotation Xrotation Yrotation
              JOINT lThumb1
              {
                OFFSET 1.2192 -0.487915 3.41376
                CHANNELS 3 Zrotation Xrotation Yrotation
                JOINT lThumb2
                {
                  OFFSET 3.37035 -0.52449 3.41376
                  CHANNELS 3 Zrotation Xrotation Yrotation
                  End Site
                  {
                    OFFSET 1.78271 -1.18214 1.43049
                  }
                }
              }
              JOINT lIndex1
              {
                OFFSET 7.75947 0.938293 5.60832
                CHANNELS 3 Zrotation Xrotation Yrotation
                JOINT lIndex2
                {
                  OFFSET 2.54057 -0.884171 1.56538
                  CHANNELS 3 Zrotation Xrotation Yrotation
                  End Site
                  {
                    OFFSET 1.62519 -0.234802 1.16502
                  }
                }
              }
              JOINT lMid1
              {
                OFFSET 8.24714 1.18213 3.41376
                CHANNELS 3 Zrotation Xrotation Yrotation
                JOINT lMid2
                {
                  OFFSET 3.10165 -0.590103 1.0647
                  CHANNELS 3 Zrotation Xrotation Yrotation
                  End Site
                  {
                    OFFSET 2.48547 -0.328903 0.83742
                  }
                }
              }
              JOINT lRing1
              {
                OFFSET 8.82822 0.546677 1.51678
                CHANNELS 3 Zrotation Xrotation Yrotation
                JOINT lRing2
                {
                  OFFSET 2.60934 -0.819778 -0.0198488
                  CHANNELS 3 Zrotation Xrotation Yrotation
                  End Site
                  {
                    OFFSET 2.33842 -0.294052 0.168128
                  }
                }
              }
              JOINT lPinky1
              {
                OFFSET 8.27202 -0.0477905 -0.4584
                CHANNELS 3 Zrotation Xrotation Yrotation
                JOINT lPinky2
                {
                  OFFSET 1.82734 -0.647385 -0.700984
                  CHANNELS 3 Zrotation Xrotation Yrotation
                  End Site
                  {
                    OFFSET 1.69225 -0.51767 -0.607171
                  }
                }
              }
            }
          }
        }
      }
    }
  }
  JOINT rButtock
  {
    OFFSET -8.77824 4.35084 1.2192
    CHANNELS 3 Zrotation Xrotation Yrotation
    JOINT rThigh
    {
      OFFSET 0 -1.70687 -2.19456
      CHANNELS 3 Zrotation Xrotation Yrotation
      JOINT rShin
      {
        OFFSET 0 -36.8199 0.73152
        CHANNELS 3 Zrotation Xrotation Yrotation
        JOINT rFoot
        {
          OFFSET 0.73152 -45.1104 -5.12064
          CHANNELS 3 Zrotation Xrotation Yrotation
          End Site
          {
            OFFSET -1.1221 -3.69964 12.103
          }
        }
      }
    }
  }
  JOINT lButtock
  {
    OFFSET 8.77824 4.35084 1.2192
    CHANNELS 3 Zrotation Xrotation Yrotation
    JOINT lThigh
    {
      OFFSET 0 -1.70687 -2.19456
      CHANNELS 3 Zrotation Xrotation Yrotation
      JOINT lShin
      {
        OFFSET 0 -36.8199 0.73152
        CHANNELS 3 Zrotation Xrotation Yrotation
        JOINT lFoot
        {
          OFFSET -0.73152 -45.1104 -5.12064
          CHANNELS 3 Zrotation Xrotation Yrotation
          End Site
          {
            OFFSET 1.1221 -3.69964 12.103
          }
        }
      }
    }
  }
}
MOTION
Frames:	8
Frame Time:	0.03333
-0.4855 53.144000000000005 -3.0845000000000002 -103.201216 -74.763124 111.264621 9.172595 5.071516 81.955016 -4.225638 -5.179112 -81.516338 10.35739 17.051126 86.319234 -24.370697 4.541246 -76.508507 0.001435 0.0 0.002781 -0.003952 0.0 -0.002551 0.950335 -6.125802 -1.310278 -91.200444 -26.957792 -129.35759 -7.793434 0.31891 -143.809073 -152.964477 17.740704 136.887086 100.080373 -51.209439 45.512662 -160.40507 -18.004846 121.728172 -25.284857 29.128463 18.325011 -178.124736 -31.316092 108.327638 -12.053183 27.676949 8.50666 -6.707269 25.188419 5.693839 0.000657 0.021789 0.006741 -148.996236 42.511257 163.722706 -65.375036 -51.680898 -63.944882 13.730569 33.01028 6.372988 -2.11789 -15.142651 3.088925 -71.599061 -17.100455 -70.229495 3.647431 0.855764 -13.196348 17.627708 72.090756 -22.402041 4.394574 4.274773 -0.834584 -22.652416 -32.137472 12.000086 -0.937753 -1.537127 0.52094 133.128693 23.197959 -101.895567 -0.970636 -2.870003 0.521133 167.900945 -19.085517 -144.283085 145.117096 2.703153 179.978625 143.32399 -54.494327 165.321219 -14.406115 49.920756 -11.596054 144.932178 1.811203 140.657697 179.970593 75.747769 0.02405 148.935386 80.875769 -26.918626 -31.225961 32.170107 140.682459 -85.022798 -39.595133 -157.846061 179.982846 75.750499 0.015346 -150.157294 -8.857465 19.072323 88.295585 70.507016 97.202204 -37.996526 18.420262 166.344636
-0.5015999999999999 53.0856 -3.079 -102.818115 -74.759462 110.878547 13.370697 6.333358 -47.667616 4.862465 -3.859842 48.127294 5.877039 11.0196 44.591727 -13.884844 -11.365956 -37.133032 -0.001039 0.0 -0.001784 -0.001039 0.0 -0.001784 -88.735392 67.977244 91.921459 -96.814214 2.370069 136.403985 -163.806284 16.744081 -74.521965 -12.979729 -55.292788 -14.898034 -175.651786 -13.290469 89.773552 159.010138 -37.285329 101.724892 -140.576788 1.675976 116.119917 -175.343493 -37.273915 116.518203 -166.071245 -23.882618 145.066293 -170.681905 -26.706886 143.869831 -145.110882 -0.705692 -178.908401 12.181298 38.904258 -4.581033 8.547998 27.101175 7.512389 -157.56865 46.762179 -149.324827 147.103084 30.568633 -151.849659 -128.873227 32.791977 133.654034 -173.742524 -14.642773 -129.096918 -116.386818 -57.138883 -119.810769 11.661105 10.952619 -2.877322 119.720264 -15.584671 -105.146452 79.915879 42.82177 -66.561132 -16.214571 -17.053749 5.378417 0.202487 0.584486 -0.113517 30.27456 52.82004 -25.239988 0.001323 -0.362753 0.115285 -7.451134 26.683404 -4.053546 1.741668 -4.356772 1.617007 145.694629 6.705344 142.445357 -0.002454 -0.00051 -8.1e-05 -4.511516 5.865116 -86.758136 -38.16535 7.629504 93.464898 -74.033444 30.61558 -12.011751 179.987523 75.750345 0.010913 -148.635932 -10.294135 -102.235777 -86.580877 -4.533785 -168.61383 -37.125497 86.847133 -50.886066
-0.5164 53.029199999999996 -3.0727 -102.300017 -74.735288 110.362601 14.026473 5.162397 -78.893586 4.934332 -1.134398 79.07414 -10.208603 21.854852 -92.271759 28.09934 15.322521 98.783242 -0.000191 0.0 -0.00369 4.9e-05 0.0 0.002319 -141.461531 42.011987 145.783239 64.724273 -12.071102 72.813685 16.84679 -26.805857 118.075336 -16.345807 -27.885786 -6.731127 174.801308 -22.215586 88.244847 172.965636 -25.968032 105.320643 -164.076023 -39.789989 122.514952 139.717375 -68.513256 80.179 -166.229866 -24.391028 145.097605 174.516376 -56.662438 137.744775 -145.070466 -2.957707 -178.198484 11.526326 61.930602 -0.98988 6.720461 20.489788 5.991737 -154.082547 34.453209 -147.946567 144.872876 35.731274 -149.425089 -134.617388 26.625361 140.884054 -177.543848 -4.344226 -130.560939 -104.99984 -59.566504 -108.757629 174.144633 -11.81046 -89.873632 137.051946 11.378949 -69.280778 152.686455 -19.6358 -121.537099 168.929852 -31.023833 -118.485846 150.630869 19.657619 -136.910908 5.139617 21.55473 -4.883067 41.639043 70.03613 -57.847636 159.544528 -17.601451 -177.69713 -11.57795 38.751908 -9.812466 -16.079046 48.763839 -8.780913 0.017093 0.000343 0.01476 -4.484495 5.704106 -96.383692 -52.014299 0.189985 -71.653645 -158.655913 44.657248 -110.564014 -0.006525 -0.000369 -0.004134 85.519967 -59.061359 2.18161 -83.993571 8.227925 -9.28368 149.50948 -18.566313 -107.301351
-0.5294 52.9795 -3.0647 -101.816612 -74.717728 109.885048 9.388564 4.448513 95.108044 -4.791269 -4.150368 -95.07697 8.039443 12.761376 60.827697 -18.68041 -5.693767 -54.179164 0.00345 0.0 0.000887 -0.002271 -0.0 0.000817 -112.828037 63.598692 116.321436 77.070848 -7.954332 50.931869 -31.297757 -33.084679 94.966811 -17.047901 -76.180529 -26.573443 77.17877 -49.344013 29.413647 -100.046194 -86.066587 -142.22395 -171.308367 -50.002371 120.78134 -162.695608 -24.426971 118.522909 14.053821 -42.763136 -2.936181 -139.384887 43.599115 127.252823 -144.891989 -7.749546 -176.672521 12.737456 41.620316 -4.202642 -139.604654 -3.480778 -136.744867 -5.516533 -17.289061 -8.715158 151.200832 17.822156 -156.463846 98.610552 -39.337963 89.67912 -6.341267 35.20737 49.026178 -93.783603 -60.665993 -97.860874 175.611931 -13.250059 -89.775852 100.609468 14.916001 -41.789632 33.079912 34.099341 -24.879715 149.866829 9.487948 -108.596218 158.887567 -1.263566 -142.343402 -15.256192 -34.930135 0.612948 145.099172 4.24101 -179.538639 -10.731005 63.462964 0.605264 148.791128 24.369454 144.925689 159.64359 48.238257 146.798312 -0.006882 -0.001763 -0.003807 -6.524144 6.437147 60.112221 36.944905 12.820535 -72.496084 127.031746 -47.445643 30.743379 179.993079 75.749168 0.005682 -148.647296 -10.312059 -90.0842 -90.675477 -0.596404 -80.890482 153.725242 15.513994 -171.848782
-0.543 52.938399999999994 -3.0553 -101.497288 -74.718605 109.568756 13.78224 5.983011 -55.157758 5.046759 -3.233807 55.261679 -10.357276 21.348828 -90.484927 27.518978 14.509953 96.089708 0.001283 -0.0 -0.001265 0.001283 -0.0 -0.001265 -13.881345 42.648152 15.7147 73.168933 7.9761 -0.114518 -2.701127 -6.190765 109.999676 -13.408267 -48.649781 -12.757101 -168.751752 -6.430273 89.900254 64.684317 -66.973497 49.729919 -155.207816 -24.328457 122.147265 18.360063 -13.433505 -10.886303 -11.169095 26.137468 7.794353 -175.839857 -41.036269 143.076325 -145.112074 -0.561408 -178.953227 10.930421 8.558038 -7.96664 -148.903655 24.79147 -145.025626 -11.930139 -26.319608 -13.966802 0.525841 3.042144 -0.690633 -76.307253 -25.336126 -86.140632 25.497374 31.2648 -16.869825 -0.879528 33.659889 -15.40165 174.964999 -12.616985 -89.824178 112.86033 15.568379 -51.167854 173.577812 -52.66728 -119.902756 -26.032872 -22.732743 9.777766 7.927935 19.871058 -5.276095 -0.626644 7.67809 -1.184606 145.121087 0.580114 179.311393 156.374676 12.458906 -179.294992 31.43649 -42.08756 30.39652 146.185836 10.470897 143.012785 179.995037 75.748996 0.002192 148.108562 81.126863 -14.346624 -31.51801 28.01438 1.797858 -101.739581 -23.212601 0.593344 -0.00293 0.000452 -0.003667 85.480751 -61.39088 165.987622 85.034992 7.657199 167.372613 8.684717 -5.0928 99.371227
-0.5583 52.9022 -3.0446999999999997 -101.348849 -74.734838 109.421563 14.165089 5.031643 -79.184879 4.963377 -1.084289 79.140146 -5.004294 27.812612 -140.912781 15.344013 31.531312 144.897598 -0.001795 -0.0 0.00146 -0.001795 -0.0 0.00146 -18.568179 48.900823 20.626875 -97.722762 8.368292 171.562717 -33.080385 28.149346 -130.317215 -162.031429 -4.816034 147.10814 -9.484354 9.015001 2.183578 -138.78401 -42.500831 113.60142 -48.414711 40.304738 38.271779 -35.121159 41.935062 21.16385 -157.241902 3.468479 141.410648 178.427874 -51.226044 140.08722 0.004438 1.995807 0.626446 9.294914 10.49132 1.339473 -134.065997 -15.291297 -131.513991 -154.133815 34.134636 -145.84358 7.499322 29.690006 -8.851784 76.508909 21.703231 -57.928987 0.821628 -19.141751 48.012324 -66.015055 -58.67645 -70.820569 -16.620626 -16.456511 0.154929 4.24136 -1.506505 7.947118 -24.077562 -42.310373 5.559049 -82.791071 -60.605944 -28.520444 7.989915 20.001237 -5.322417 177.325164 -44.264059 -142.519737 145.051767 6.4848 -178.829052 152.056693 -29.735435 174.384002 -6.391928 19.35468 -5.710904 125.806016 -33.17893 123.904276 -0.000549 0.000357 -0.000157 -6.699768 5.956669 85.166574 40.93707 0.311932 -123.510117 67.499933 -23.402031 5.909833 -179.995325 75.748274 -0.004041 -150.977059 -10.372968 85.447226 80.863359 7.958697 -153.60257 -53.399087 -77.299411 42.872204
-0.5784 52.870799999999996 -3.0326 -101.334459 -74.761744 109.413701 9.495895 5.161792 74.577438 -3.867502 -5.781337 -74.68154 8.840382 24.107003 131.940266 -19.580502 23.150965 -122.850424 -0.003608 -0.0 0.001754 0.001816 0.0 0.001865 -1.482345 8.052385 1.902953 -67.066589 -46.557554 -126.147042 174.407847 29.516936 -65.883618 -15.691106 -31.507562 -7.774976 -42.406616 30.967349 18.207647 -125.784101 -24.753531 94.082619 -120.553718 25.788704 101.82746 -154.55667 5.947496 115.3593 -169.653159 -34.905143 145.369144 163.907503 -66.36721 129.791795 -145.079578 5.321458 179.197885 -154.964283 -9.205311 -178.017604 -17.949514 -31.102646 -17.174067 -139.48829 -8.601549 -137.429099 120.669453 60.535327 -124.301816 -145.301545 -17.018564 164.679997 -13.633052 -37.89517 -20.077204 155.854102 78.017458 -153.365624 165.623254 -3.294057 -89.681406 -66.129201 -65.319458 -50.6663 -12.535296 -22.381749 5.196756 -32.323617 -26.17253 0.85553 -20.90458 -56.982527 0.346665 16.032354 39.625516 -12.709615 -0.00401 0.748336 -0.23502 155.729306 -55.993192 -179.310585 4.129212 -9.750831 3.863198 16.686597 -34.67821 17.839138 -0.00165 0.001341 -0.000711 -5.158288 6.876591 -23.798418 -5.646089 45.740835 119.361253 -80.001594 -18.212602 -153.474694 0.001643 -0.00038 0.001177 86.504415 -59.178074 -6.670485 -90.376601 1.915706 -70.156968 142.721553 7.453826 -163.289388
-0.601 52.8408 -3.0246 -101.381586 -74.789679 109.476064 9.471227 5.055896 75.340586 -3.904839 -5.742465 -75.460473 -9.352926 23.971996 -109.646403 23.551795 21.863279 112.436355 0.002272 0.0 0.003303 0.002467 -0.0 -0.002423 -159.026915 -39.735152 168.727737 124.416598 -20.946608 163.894441 -163.631382 22.417144 29.233663 -153.179349 17.401508 137.076946 14.785335 -14.694005 -0.374426 -130.311372 -16.370612 117.334909 -156.339203 -26.414721 122.351727 -169.607862 -33.409626 118.053229 -17.201238 35.412687 12.809814 -2.313668 15.450491 2.860852 0.004304 1.018813 0.320855 -155.918546 -8.034034 172.819863 -120.031613 -34.159338 -117.919335 -150.446221 23.562157 -144.574779 115.448052 62.702545 -118.984296 -143.355449 -16.93261 167.682913 -4.812298 -24.736708 -14.869829 72.398977 84.123291 -73.166627 12.217896 11.44004 -3.064782 136.037818 -38.430691 -111.484073 -6.81301 -11.789006 3.342572 157.545992 -9.990373 -110.39952 98.225021 59.642435 -89.318902 172.160527 -31.781977 -143.83265 0.186548 -6.969207 2.204933 155.984981 -35.868184 -176.148669 31.950741 -42.387531 30.903965 159.332794 55.83105 149.40851 0.000193 0.00053 -0.000352 -4.74565 5.190425 -122.839258 -47.865253 -22.62924 -27.892965 174.040002 -2.976371 -90.213892 -179.924197 75.749615 -0.060975 -149.115991 -9.641359 -38.179797 -82.662605 59.089271 -172.855875 -137.881101 -33.624322 119.046654
